<?xml version="1.0" encoding="UTF-8" standalone="no"?>
<!DOCTYPE svg PUBLIC "-//W3C//DTD SVG 1.1//EN"
 "http://www.w3.org/Graphics/SVG/1.1/DTD/svg11.dtd">
<!-- Generated by graphviz version 2.43.0 (0)
 -->
<!-- Title: G Pages: 1 -->
<svg width="2498pt" height="2825pt"
 viewBox="0.00 0.00 2498.43 2824.77" xmlns="http://www.w3.org/2000/svg" xmlns:xlink="http://www.w3.org/1999/xlink">
<g id="graph0" class="graph" transform="scale(1 1) rotate(0) translate(4 2820.77)">
<title>G</title>
<polygon fill="white" stroke="transparent" points="-4,4 -4,-2820.77 2494.43,-2820.77 2494.43,4 -4,4"/>
<g id="clust1" class="cluster">
<title>cluster_0</title>
<polygon fill="#f3f3f3" stroke="black" points="1120.22,-2203.98 1120.22,-2407.98 1370.22,-2407.98 1370.22,-2203.98 1120.22,-2203.98"/>
<text text-anchor="start" x="1170.72" y="-2393.78" font-family="Times,serif" font-weight="bold" font-size="14.00" fill="blue">CoPresence: </text>
<text text-anchor="start" x="1273.72" y="-2393.78" font-family="Times,serif" font-weight="bold" font-size="14.00" fill="red">TRUE</text>
</g>
<g id="clust2" class="cluster">
<title>cluster_1</title>
<path fill="#ffe6cc" stroke="#d6b656" d="M1140.22,-2211.98C1140.22,-2211.98 1350.22,-2211.98 1350.22,-2211.98 1356.22,-2211.98 1362.22,-2217.98 1362.22,-2223.98 1362.22,-2223.98 1362.22,-2364.98 1362.22,-2364.98 1362.22,-2370.98 1356.22,-2376.98 1350.22,-2376.98 1350.22,-2376.98 1140.22,-2376.98 1140.22,-2376.98 1134.22,-2376.98 1128.22,-2370.98 1128.22,-2364.98 1128.22,-2364.98 1128.22,-2223.98 1128.22,-2223.98 1128.22,-2217.98 1134.22,-2211.98 1140.22,-2211.98"/>
<text text-anchor="middle" x="1245.22" y="-2361.78" font-family="Times,serif" font-size="14.00">[H]: PASSIVE[&#39;WAIT_TURN&#39;]</text>
</g>
<g id="clust3" class="cluster">
<title>cluster_1</title>
<polygon fill="#f3f3f3" stroke="black" points="1062.22,-1982.98 1062.22,-2186.98 1408.22,-2186.98 1408.22,-1982.98 1062.22,-1982.98"/>
<text text-anchor="start" x="1160.72" y="-2172.78" font-family="Times,serif" font-weight="bold" font-size="14.00" fill="blue">CoPresence: </text>
<text text-anchor="start" x="1263.72" y="-2172.78" font-family="Times,serif" font-weight="bold" font-size="14.00" fill="red">TRUE</text>
</g>
<g id="clust4" class="cluster">
<title>cluster_2</title>
<path fill="#ffe6cc" stroke="#d6b656" d="M1082.22,-1990.98C1082.22,-1990.98 1388.22,-1990.98 1388.22,-1990.98 1394.22,-1990.98 1400.22,-1996.98 1400.22,-2002.98 1400.22,-2002.98 1400.22,-2143.98 1400.22,-2143.98 1400.22,-2149.98 1394.22,-2155.98 1388.22,-2155.98 1388.22,-2155.98 1082.22,-2155.98 1082.22,-2155.98 1076.22,-2155.98 1070.22,-2149.98 1070.22,-2143.98 1070.22,-2143.98 1070.22,-2002.98 1070.22,-2002.98 1070.22,-1996.98 1076.22,-1990.98 1082.22,-1990.98"/>
<text text-anchor="middle" x="1235.22" y="-2140.78" font-family="Times,serif" font-size="14.00">[H]: change_focus_towards(&#39;table&#39;, &#39;table_1&#39;)</text>
</g>
<g id="clust6" class="cluster">
<title>cluster_3</title>
<polygon fill="#f3f3f3" stroke="black" points="24.22,-1681.15 24.22,-1965.98 2446.22,-1965.98 2446.22,-1681.15 24.22,-1681.15"/>
<text text-anchor="start" x="1158.22" y="-1951.78" font-family="Times,serif" font-weight="bold" font-size="14.00" fill="blue">CoPresence: </text>
<text text-anchor="start" x="1261.22" y="-1951.78" font-family="Times,serif" font-weight="bold" font-size="14.00" fill="red">FALSE</text>
</g>
<g id="clust7" class="cluster">
<title>cluster_4</title>
<polygon fill="none" stroke="black" points="863.22,-1882.98 863.22,-1934.98 1317.22,-1934.98 1317.22,-1882.98 863.22,-1882.98"/>
</g>
<g id="clust8" class="cluster">
<title>cluster_5</title>
<polygon fill="lightyellow" stroke="black" points="32.22,-1689.15 32.22,-1847.98 2438.22,-1847.98 2438.22,-1689.15 32.22,-1689.15"/>
</g>
<g id="clust9" class="cluster">
<title>cluster_5</title>
<polygon fill="#f3f3f3" stroke="black" points="226.22,-1336.88 226.22,-1664.15 2244.22,-1664.15 2244.22,-1336.88 226.22,-1336.88"/>
<text text-anchor="start" x="1158.22" y="-1649.95" font-family="Times,serif" font-weight="bold" font-size="14.00" fill="blue">CoPresence: </text>
<text text-anchor="start" x="1261.22" y="-1649.95" font-family="Times,serif" font-weight="bold" font-size="14.00" fill="red">FALSE</text>
</g>
<g id="clust10" class="cluster">
<title>cluster_6</title>
<polygon fill="none" stroke="black" points="979.22,-1581.15 979.22,-1633.15 1352.22,-1633.15 1352.22,-1581.15 979.22,-1581.15"/>
</g>
<g id="clust11" class="cluster">
<title>cluster_7</title>
<polygon fill="lightyellow" stroke="black" points="234.22,-1344.88 234.22,-1546.15 2236.22,-1546.15 2236.22,-1344.88 234.22,-1344.88"/>
</g>
<g id="clust12" class="cluster">
<title>cluster_7</title>
<polygon fill="#f3f3f3" stroke="black" points="251.22,-992.62 251.22,-1319.88 2219.22,-1319.88 2219.22,-992.62 251.22,-992.62"/>
<text text-anchor="start" x="1158.22" y="-1305.68" font-family="Times,serif" font-weight="bold" font-size="14.00" fill="blue">CoPresence: </text>
<text text-anchor="start" x="1261.22" y="-1305.68" font-family="Times,serif" font-weight="bold" font-size="14.00" fill="red">FALSE</text>
</g>
<g id="clust13" class="cluster">
<title>cluster_8</title>
<polygon fill="none" stroke="black" points="770.22,-1236.88 770.22,-1288.88 1352.22,-1288.88 1352.22,-1236.88 770.22,-1236.88"/>
</g>
<g id="clust14" class="cluster">
<title>cluster_9</title>
<polygon fill="lightyellow" stroke="black" points="259.22,-1000.62 259.22,-1201.88 2211.22,-1201.88 2211.22,-1000.62 259.22,-1000.62"/>
</g>
<g id="clust15" class="cluster">
<title>cluster_9</title>
<polygon fill="#f3f3f3" stroke="black" points="377.22,-712 377.22,-975.62 2093.22,-975.62 2093.22,-712 377.22,-712"/>
<text text-anchor="start" x="1158.22" y="-961.42" font-family="Times,serif" font-weight="bold" font-size="14.00" fill="blue">CoPresence: </text>
<text text-anchor="start" x="1261.22" y="-961.42" font-family="Times,serif" font-weight="bold" font-size="14.00" fill="red">FALSE</text>
</g>
<g id="clust16" class="cluster">
<title>cluster_10</title>
<polygon fill="none" stroke="black" points="828.22,-892.62 828.22,-944.62 1352.22,-944.62 1352.22,-892.62 828.22,-892.62"/>
</g>
<g id="clust17" class="cluster">
<title>cluster_11</title>
<polygon fill="lightyellow" stroke="black" points="385.22,-720 385.22,-857.62 2085.22,-857.62 2085.22,-720 385.22,-720"/>
</g>
<g id="clust18" class="cluster">
<title>cluster_11</title>
<polygon fill="#f3f3f3" stroke="black" points="1095.22,-491 1095.22,-695 1375.22,-695 1375.22,-491 1095.22,-491"/>
<text text-anchor="start" x="1160.72" y="-680.8" font-family="Times,serif" font-weight="bold" font-size="14.00" fill="blue">CoPresence: </text>
<text text-anchor="start" x="1263.72" y="-680.8" font-family="Times,serif" font-weight="bold" font-size="14.00" fill="red">TRUE</text>
</g>
<g id="clust19" class="cluster">
<title>cluster_12</title>
<path fill="#ffe6cc" stroke="#d6b656" d="M1115.22,-499C1115.22,-499 1355.22,-499 1355.22,-499 1361.22,-499 1367.22,-505 1367.22,-511 1367.22,-511 1367.22,-652 1367.22,-652 1367.22,-658 1361.22,-664 1355.22,-664 1355.22,-664 1115.22,-664 1115.22,-664 1109.22,-664 1103.22,-658 1103.22,-652 1103.22,-652 1103.22,-511 1103.22,-511 1103.22,-505 1109.22,-499 1115.22,-499"/>
<text text-anchor="middle" x="1235.22" y="-648.8" font-family="Times,serif" font-size="14.00">[H]: PASSIVE[&#39;WAIT_TURN&#39;]</text>
</g>
<g id="clust20" class="cluster">
<title>cluster_12</title>
<polygon fill="#f3f3f3" stroke="black" points="1075.22,-270 1075.22,-474 1389.22,-474 1389.22,-270 1075.22,-270"/>
<text text-anchor="start" x="1157.72" y="-459.8" font-family="Times,serif" font-weight="bold" font-size="14.00" fill="blue">CoPresence: </text>
<text text-anchor="start" x="1260.72" y="-459.8" font-family="Times,serif" font-weight="bold" font-size="14.00" fill="red">TRUE</text>
</g>
<g id="clust21" class="cluster">
<title>cluster_13</title>
<path fill="#ffe6cc" stroke="#d6b656" d="M1095.22,-278C1095.22,-278 1369.22,-278 1369.22,-278 1375.22,-278 1381.22,-284 1381.22,-290 1381.22,-290 1381.22,-431 1381.22,-431 1381.22,-437 1375.22,-443 1369.22,-443 1369.22,-443 1095.22,-443 1095.22,-443 1089.22,-443 1083.22,-437 1083.22,-431 1083.22,-431 1083.22,-290 1083.22,-290 1083.22,-284 1089.22,-278 1095.22,-278"/>
<text text-anchor="middle" x="1232.22" y="-427.8" font-family="Times,serif" font-size="14.00">[H]: place_1(&#39;w1&#39;, &#39;box_2&#39;)</text>
</g>
<g id="clust23" class="cluster">
<title>cluster_14</title>
<polygon fill="#f3f3f3" stroke="black" points="1074.22,-49 1074.22,-253 1390.22,-253 1390.22,-49 1074.22,-49"/>
<text text-anchor="start" x="1157.72" y="-238.8" font-family="Times,serif" font-weight="bold" font-size="14.00" fill="blue">CoPresence: </text>
<text text-anchor="start" x="1260.72" y="-238.8" font-family="Times,serif" font-weight="bold" font-size="14.00" fill="red">TRUE</text>
</g>
<g id="clust24" class="cluster">
<title>cluster_15</title>
<path fill="#ffe6cc" stroke="#d6b656" d="M1094.22,-57C1094.22,-57 1370.22,-57 1370.22,-57 1376.22,-57 1382.22,-63 1382.22,-69 1382.22,-69 1382.22,-210 1382.22,-210 1382.22,-216 1376.22,-222 1370.22,-222 1370.22,-222 1094.22,-222 1094.22,-222 1088.22,-222 1082.22,-216 1082.22,-210 1082.22,-210 1082.22,-69 1082.22,-69 1082.22,-63 1088.22,-57 1094.22,-57"/>
<text text-anchor="middle" x="1232.22" y="-206.8" font-family="Times,serif" font-size="14.00">[H]: PASSIVE[&#39;WAIT_TURN&#39;]</text>
</g>
<!-- H3R2 -->
<g id="node1" class="node">
<title>H3R2</title>
<ellipse fill="black" stroke="black" cx="1245.22" cy="-2809.77" rx="7" ry="7"/>
</g>
<!-- H3R2_1 -->
<g id="node2" class="node">
<title>H3R2_1</title>
<ellipse fill="none" stroke="black" cx="1245.22" cy="-2593.37" rx="1245.43" ry="158.28"/>
<text text-anchor="middle" x="1245.22" y="-2690.17" font-family="Times,serif" font-size="14.00">Total number of worlds:1</text>
<text text-anchor="middle" x="1245.22" y="-2659.17" font-family="Times,serif" font-size="14.00">(Only relevant) details for the INITIAL (epistemic) state:</text>
<text text-anchor="middle" x="1245.22" y="-2612.17" font-family="Times,serif" font-size="14.00">(Designated) World &#45; 1 : agent_at(R) = table,	agent_at(H) = table,	facing_table(R) = table,	facing_table(H) = table,	cube&#45;at&#45;table(r1) = table,	cube&#45;at&#45;table(w1) = table_1,	who&#45;can&#45;access(r1) = [&#39;R&#39;],	who&#45;can&#45;access(w1) = [&#39;H&#39;],	</text>
<text text-anchor="middle" x="1245.22" y="-2581.17" font-family="Times,serif" font-size="14.00">[[Some static facts in the initial state are specified as follows]]</text>
<text text-anchor="middle" x="1245.22" y="-2566.17" font-family="Times,serif" font-size="14.00">cube_belongs_to_table(r1) = table,	cube_belongs_to_table(w1) = table_1,	box_type(box_1) = opaque,	box_type(box_2) = opaque,	box_on_table(box_1) = table,	box_on_table(box_2) = table,	</text>
<text text-anchor="middle" x="1245.22" y="-2535.17" font-family="Times,serif" font-size="14.00">[[Each goal state must satisfy the following goal conditions]]</text>
<text text-anchor="middle" x="1245.22" y="-2520.17" font-family="Times,serif" font-size="14.00">GOAL: all cubes belonging to the same table initially, should be contained in one box eventually!!</text>
<text text-anchor="middle" x="1245.22" y="-2489.17" font-family="Times,serif" font-size="14.00">Who starts first? : ROBOT</text>
</g>
<!-- H3R2&#45;&gt;H3R2_1 -->
<g id="edge1" class="edge">
<title>H3R2:s&#45;&gt;H3R2_1:n</title>
<path fill="none" stroke="black" d="M1245.22,-2802.77C1245.22,-2783.99 1245.22,-2776.88 1245.22,-2762.12"/>
<polygon fill="black" stroke="black" points="1248.72,-2761.77 1245.22,-2751.77 1241.72,-2761.77 1248.72,-2761.77"/>
<text text-anchor="start" x="1245.22" y="-2774.57" font-family="Times,serif" font-weight="bold" font-size="14.00" fill="blue">A rough description of Init State and GOAL</text>
</g>
<!-- H7R8 -->
<g id="node3" class="node">
<title>H7R8</title>
<ellipse fill="#dae8fc" stroke="#6c8ebf" cx="1245.22" cy="-2327.98" rx="108.58" ry="18"/>
<text text-anchor="middle" x="1245.22" y="-2324.28" font-family="Times,serif" font-size="14.00">[R]: PASSIVE[&#39;PASS&#39;]</text>
</g>
<!-- H3R2_1&#45;&gt;H7R8 -->
<g id="edge3" class="edge">
<title>H3R2_1:s&#45;&gt;H7R8:n</title>
<path fill="none" stroke="black" d="M1245.22,-2434.98C1245.22,-2428.72 1245.22,-2423.21 1245.22,-2418.2"/>
<polygon fill="black" stroke="black" points="1248.72,-2417.98 1245.22,-2407.98 1241.72,-2417.98 1248.72,-2417.98"/>
</g>
<!-- H7R8_1 -->
<g id="node4" class="node">
<title>H7R8_1</title>
<polygon fill="none" stroke="black" points="1333.72,-2258.98 1136.72,-2258.98 1136.72,-2219.98 1333.72,-2219.98 1333.72,-2258.98"/>
<text text-anchor="middle" x="1235.22" y="-2243.78" font-family="Times,serif" font-size="14.00">Total number of worlds:1</text>
</g>
<!-- H7R8&#45;&gt;H7R8_1 -->
<g id="edge2" class="edge">
<title>H7R8&#45;&gt;H7R8_1</title>
<path fill="none" stroke="black" d="M1243.24,-2309.89C1241.9,-2298.31 1240.1,-2282.73 1238.54,-2269.26"/>
<polygon fill="black" stroke="black" points="1241.99,-2268.57 1237.36,-2259.03 1235.03,-2269.37 1241.99,-2268.57"/>
<text text-anchor="start" x="1240.22" y="-2281.78" font-family="Times,serif" font-weight="bold" font-size="14.00" fill="blue">Post SA and INF</text>
</g>
<!-- H20R23 -->
<g id="node5" class="node">
<title>H20R23</title>
<ellipse fill="#dae8fc" stroke="#6c8ebf" cx="1235.22" cy="-2106.98" rx="141.07" ry="18"/>
<text text-anchor="middle" x="1235.22" y="-2103.28" font-family="Times,serif" font-size="14.00">[R]: PASSIVE[&#39;WAIT_TURN&#39;]</text>
</g>
<!-- H7R8_1&#45;&gt;H20R23 -->
<g id="edge5" class="edge">
<title>H7R8_1:s&#45;&gt;H20R23:n</title>
<path fill="none" stroke="black" d="M1235.22,-2218.48C1235.22,-2181.06 1235.22,-2169.19 1235.22,-2136.36"/>
<polygon fill="black" stroke="black" points="1238.72,-2135.98 1235.22,-2125.98 1231.72,-2135.98 1238.72,-2135.98"/>
</g>
<!-- H20R23_1 -->
<g id="node6" class="node">
<title>H20R23_1</title>
<polygon fill="none" stroke="black" points="1333.72,-2037.98 1136.72,-2037.98 1136.72,-1998.98 1333.72,-1998.98 1333.72,-2037.98"/>
<text text-anchor="middle" x="1235.22" y="-2022.78" font-family="Times,serif" font-size="14.00">Total number of worlds:1</text>
</g>
<!-- H20R23&#45;&gt;H20R23_1 -->
<g id="edge4" class="edge">
<title>H20R23&#45;&gt;H20R23_1</title>
<path fill="none" stroke="black" d="M1235.22,-2088.89C1235.22,-2077.31 1235.22,-2061.73 1235.22,-2048.26"/>
<polygon fill="black" stroke="black" points="1238.72,-2048.03 1235.22,-2038.03 1231.72,-2048.03 1238.72,-2048.03"/>
<text text-anchor="start" x="1235.22" y="-2060.78" font-family="Times,serif" font-weight="bold" font-size="14.00" fill="blue">Post SA and INF</text>
</g>
<!-- H21R61 -->
<g id="node7" class="node">
<title>H21R61</title>
<ellipse fill="#dae8fc" stroke="#6c8ebf" cx="1235.22" cy="-1908.98" rx="74.19" ry="18"/>
<text text-anchor="middle" x="1235.22" y="-1905.28" font-family="Times,serif" font-size="14.00">[R]: pick(&#39;r1&#39;,)</text>
</g>
<!-- H20R23_1&#45;&gt;H21R61 -->
<g id="edge7" class="edge">
<title>H20R23_1:s&#45;&gt;H21R61:n</title>
<path fill="none" stroke="black" d="M1235.22,-1997.48C1235.22,-1988.91 1235.22,-1982.12 1235.22,-1976.13"/>
<polygon fill="black" stroke="black" points="1238.72,-1975.98 1235.22,-1965.98 1231.72,-1975.98 1238.72,-1975.98"/>
</g>
<!-- H21R61_1 -->
<g id="node8" class="node">
<title>H21R61_1</title>
<ellipse fill="none" stroke="black" cx="1235.22" cy="-1768.56" rx="1195.02" ry="71.34"/>
<text text-anchor="middle" x="1235.22" y="-1803.86" font-family="Times,serif" font-size="14.00">Total number of worlds: 2</text>
<text text-anchor="middle" x="1235.22" y="-1772.86" font-family="Times,serif" font-size="14.00">World &#45; 1 : agent_at(R) = table,	agent_at(H) = table_1,	facing_table(R) = table,	facing_table(H) = table_1,	cube&#45;at&#45;table(r1) = table,	cube&#45;at&#45;table(w1) = table_1,	who&#45;can&#45;access(r1) = [&#39;R&#39;],	who&#45;can&#45;access(w1) = [&#39;H&#39;],	</text>
<text text-anchor="middle" x="1235.22" y="-1741.86" font-family="Times,serif" font-size="14.00">(Designated) World &#45; 2 : holding(R) = r1,	agent_at(R) = table,	agent_at(H) = table_1,	facing_table(R) = table,	facing_table(H) = table_1,	cube&#45;at&#45;table(w1) = table_1,	who&#45;can&#45;access(w1) = [&#39;H&#39;],	</text>
</g>
<!-- H21R61&#45;&gt;H21R61_1 -->
<g id="edge6" class="edge">
<title>H21R61&#45;&gt;H21R61_1</title>
<path fill="none" stroke="black" d="M1235.22,-1890.73C1235.22,-1880.09 1235.22,-1865.59 1235.22,-1850.31"/>
<polygon fill="black" stroke="black" points="1238.72,-1850.19 1235.22,-1840.19 1231.72,-1850.19 1238.72,-1850.19"/>
<text text-anchor="start" x="1235.22" y="-1862.78" font-family="Times,serif" font-weight="bold" font-size="14.00" fill="blue">Post SA and INF</text>
</g>
<!-- H22R128 -->
<g id="node10" class="node">
<title>H22R128</title>
<ellipse fill="#dae8fc" stroke="#6c8ebf" cx="1235.22" cy="-1607.15" rx="108.58" ry="18"/>
<text text-anchor="middle" x="1235.22" y="-1603.45" font-family="Times,serif" font-size="14.00">[R]: PASSIVE[&#39;PASS&#39;]</text>
</g>
<!-- H21R61_1&#45;&gt;H22R128 -->
<g id="edge9" class="edge">
<title>H21R61_1:s&#45;&gt;H22R128:n</title>
<path fill="none" stroke="black" d="M1235.22,-1695.56C1235.22,-1668.45 1235.22,-1659.21 1235.22,-1636.42"/>
<polygon fill="black" stroke="black" points="1238.72,-1636.15 1235.22,-1626.15 1231.72,-1636.15 1238.72,-1636.15"/>
</g>
<!-- H40R37 -->
<g id="node9" class="node">
<title>H40R37</title>
<path fill="#dae8fc" stroke="#6c8ebf" d="M1131.22,-1926.98C1131.22,-1926.98 883.22,-1926.98 883.22,-1926.98 877.22,-1926.98 871.22,-1920.98 871.22,-1914.98 871.22,-1914.98 871.22,-1902.98 871.22,-1902.98 871.22,-1896.98 877.22,-1890.98 883.22,-1890.98 883.22,-1890.98 1131.22,-1890.98 1131.22,-1890.98 1137.22,-1890.98 1143.22,-1896.98 1143.22,-1902.98 1143.22,-1902.98 1143.22,-1914.98 1143.22,-1914.98 1143.22,-1920.98 1137.22,-1926.98 1131.22,-1926.98"/>
<text text-anchor="middle" x="1007.22" y="-1905.28" font-family="Times,serif" font-size="14.00">[H]: move_to_table(&#39;table&#39;, &#39;table_1&#39;)</text>
</g>
<!-- H22R128_1 -->
<g id="node11" class="node">
<title>H22R128_1</title>
<ellipse fill="none" stroke="black" cx="1235.22" cy="-1445.52" rx="993.47" ry="92.76"/>
<text text-anchor="middle" x="1235.22" y="-1495.82" font-family="Times,serif" font-size="14.00">Total number of worlds: 4</text>
<text text-anchor="middle" x="1235.22" y="-1464.82" font-family="Times,serif" font-size="14.00">World &#45; 1 : holding(H) = w1,	agent_at(R) = table,	agent_at(H) = table_1,	facing_table(R) = table,	facing_table(H) = table_1,	cube&#45;at&#45;table(r1) = table,	who&#45;can&#45;access(r1) = [&#39;R&#39;],	</text>
<text text-anchor="middle" x="1235.22" y="-1449.82" font-family="Times,serif" font-size="14.00">World &#45; 2 : holding(H) = w1,	agent_at(R) = table,	agent_at(H) = table_1,	facing_table(R) = table,	facing_table(H) = table_1,	cube&#45;contains&#45;in&#45;box(r1) = box_2,	</text>
<text text-anchor="middle" x="1235.22" y="-1434.82" font-family="Times,serif" font-size="14.00">World &#45; 3 : holding(H) = w1,	agent_at(R) = table,	agent_at(H) = table_1,	facing_table(R) = table,	facing_table(H) = table_1,	cube&#45;contains&#45;in&#45;box(r1) = box_1,	</text>
<text text-anchor="middle" x="1235.22" y="-1403.82" font-family="Times,serif" font-size="14.00">(Designated) World &#45; 4 : holding(R) = r1,	holding(H) = w1,	agent_at(R) = table,	agent_at(H) = table_1,	facing_table(R) = table,	facing_table(H) = table_1,	</text>
</g>
<!-- H22R128&#45;&gt;H22R128_1 -->
<g id="edge8" class="edge">
<title>H22R128&#45;&gt;H22R128_1</title>
<path fill="none" stroke="black" d="M1235.22,-1589.06C1235.22,-1578.64 1235.22,-1564.36 1235.22,-1548.84"/>
<polygon fill="black" stroke="black" points="1238.72,-1548.49 1235.22,-1538.49 1231.72,-1548.49 1238.72,-1548.49"/>
<text text-anchor="start" x="1235.22" y="-1560.95" font-family="Times,serif" font-weight="bold" font-size="14.00" fill="blue">Post SA and INF</text>
</g>
<!-- H270R273 -->
<g id="node13" class="node">
<title>H270R273</title>
<ellipse fill="#dae8fc" stroke="#6c8ebf" cx="1235.22" cy="-1262.88" rx="108.58" ry="18"/>
<text text-anchor="middle" x="1235.22" y="-1259.18" font-family="Times,serif" font-size="14.00">[R]: PASSIVE[&#39;PASS&#39;]</text>
</g>
<!-- H22R128_1&#45;&gt;H270R273 -->
<g id="edge11" class="edge">
<title>H22R128_1:s&#45;&gt;H270R273:n</title>
<path fill="none" stroke="black" d="M1235.22,-1351.52C1235.22,-1324.32 1235.22,-1315.05 1235.22,-1292.19"/>
<polygon fill="black" stroke="black" points="1238.72,-1291.88 1235.22,-1281.88 1231.72,-1291.88 1238.72,-1291.88"/>
</g>
<!-- H108R109 -->
<g id="node12" class="node">
<title>H108R109</title>
<path fill="#dae8fc" stroke="#6c8ebf" d="M1096.72,-1625.15C1096.72,-1625.15 999.72,-1625.15 999.72,-1625.15 993.72,-1625.15 987.72,-1619.15 987.72,-1613.15 987.72,-1613.15 987.72,-1601.15 987.72,-1601.15 987.72,-1595.15 993.72,-1589.15 999.72,-1589.15 999.72,-1589.15 1096.72,-1589.15 1096.72,-1589.15 1102.72,-1589.15 1108.72,-1595.15 1108.72,-1601.15 1108.72,-1601.15 1108.72,-1613.15 1108.72,-1613.15 1108.72,-1619.15 1102.72,-1625.15 1096.72,-1625.15"/>
<text text-anchor="middle" x="1048.22" y="-1603.45" font-family="Times,serif" font-size="14.00">[H]: pick(&#39;w1&#39;,)</text>
</g>
<!-- H270R273_1 -->
<g id="node14" class="node">
<title>H270R273_1</title>
<ellipse fill="none" stroke="black" cx="1235.22" cy="-1101.25" rx="968.06" ry="92.76"/>
<text text-anchor="middle" x="1235.22" y="-1151.55" font-family="Times,serif" font-size="14.00">Total number of worlds: 4</text>
<text text-anchor="middle" x="1235.22" y="-1120.55" font-family="Times,serif" font-size="14.00">World &#45; 1 : holding(H) = w1,	agent_at(R) = table,	agent_at(H) = table_1,	facing_table(R) = table,	facing_table(H) = table,	cube&#45;contains&#45;in&#45;box(r1) = box_1,	</text>
<text text-anchor="middle" x="1235.22" y="-1105.55" font-family="Times,serif" font-size="14.00">World &#45; 2 : holding(H) = w1,	agent_at(R) = table,	agent_at(H) = table_1,	facing_table(R) = table,	facing_table(H) = table,	cube&#45;at&#45;table(r1) = table,	who&#45;can&#45;access(r1) = [&#39;R&#39;],	</text>
<text text-anchor="middle" x="1235.22" y="-1090.55" font-family="Times,serif" font-size="14.00">World &#45; 3 : holding(H) = w1,	agent_at(R) = table,	agent_at(H) = table_1,	facing_table(R) = table,	facing_table(H) = table,	cube&#45;contains&#45;in&#45;box(r1) = box_2,	</text>
<text text-anchor="middle" x="1235.22" y="-1059.55" font-family="Times,serif" font-size="14.00">(Designated) World &#45; 4 : holding(R) = r1,	holding(H) = w1,	agent_at(R) = table,	agent_at(H) = table_1,	facing_table(R) = table,	facing_table(H) = table,	</text>
</g>
<!-- H270R273&#45;&gt;H270R273_1 -->
<g id="edge10" class="edge">
<title>H270R273&#45;&gt;H270R273_1</title>
<path fill="none" stroke="black" d="M1235.22,-1244.8C1235.22,-1234.38 1235.22,-1220.1 1235.22,-1204.58"/>
<polygon fill="black" stroke="black" points="1238.72,-1204.23 1235.22,-1194.23 1231.72,-1204.23 1238.72,-1204.23"/>
<text text-anchor="start" x="1235.22" y="-1216.68" font-family="Times,serif" font-weight="bold" font-size="14.00" fill="blue">Post SA and INF</text>
</g>
<!-- H271R475 -->
<g id="node16" class="node">
<title>H271R475</title>
<ellipse fill="#dae8fc" stroke="#6c8ebf" cx="1235.22" cy="-918.62" rx="108.58" ry="18"/>
<text text-anchor="middle" x="1235.22" y="-914.92" font-family="Times,serif" font-size="14.00">[R]: PASSIVE[&#39;PASS&#39;]</text>
</g>
<!-- H270R273_1&#45;&gt;H271R475 -->
<g id="edge13" class="edge">
<title>H270R273_1:s&#45;&gt;H271R475:n</title>
<path fill="none" stroke="black" d="M1235.22,-1007.25C1235.22,-980.05 1235.22,-970.78 1235.22,-947.93"/>
<polygon fill="black" stroke="black" points="1238.72,-947.62 1235.22,-937.62 1231.72,-947.62 1238.72,-947.62"/>
</g>
<!-- H200R201 -->
<g id="node15" class="node">
<title>H200R201</title>
<path fill="#dae8fc" stroke="#6c8ebf" d="M1096.22,-1280.88C1096.22,-1280.88 790.22,-1280.88 790.22,-1280.88 784.22,-1280.88 778.22,-1274.88 778.22,-1268.88 778.22,-1268.88 778.22,-1256.88 778.22,-1256.88 778.22,-1250.88 784.22,-1244.88 790.22,-1244.88 790.22,-1244.88 1096.22,-1244.88 1096.22,-1244.88 1102.22,-1244.88 1108.22,-1250.88 1108.22,-1256.88 1108.22,-1256.88 1108.22,-1268.88 1108.22,-1268.88 1108.22,-1274.88 1102.22,-1280.88 1096.22,-1280.88"/>
<text text-anchor="middle" x="943.22" y="-1259.18" font-family="Times,serif" font-size="14.00">[H]: change_focus_towards(&#39;table_1&#39;, &#39;table&#39;)</text>
</g>
<!-- H271R475_1 -->
<g id="node17" class="node">
<title>H271R475_1</title>
<ellipse fill="none" stroke="black" cx="1235.22" cy="-788.81" rx="842.33" ry="60.62"/>
<text text-anchor="middle" x="1235.22" y="-816.61" font-family="Times,serif" font-size="14.00">Total number of worlds: 1</text>
<text text-anchor="middle" x="1235.22" y="-769.61" font-family="Times,serif" font-size="14.00">(Designated) World &#45; 1 : holding(R) = r1,	holding(H) = w1,	agent_at(R) = table,	agent_at(H) = table,	facing_table(R) = table,	facing_table(H) = table,	</text>
</g>
<!-- H271R475&#45;&gt;H271R475_1 -->
<g id="edge12" class="edge">
<title>H271R475&#45;&gt;H271R475_1</title>
<path fill="none" stroke="black" d="M1235.22,-900.39C1235.22,-889.7 1235.22,-875.19 1235.22,-860.2"/>
<polygon fill="black" stroke="black" points="1238.72,-859.78 1235.22,-849.78 1231.72,-859.78 1238.72,-859.78"/>
<text text-anchor="start" x="1235.22" y="-872.42" font-family="Times,serif" font-weight="bold" font-size="14.00" fill="blue">Post SA and INF</text>
</g>
<!-- H542R540 -->
<g id="node19" class="node">
<title>H542R540</title>
<ellipse fill="#dae8fc" stroke="#6c8ebf" cx="1235.22" cy="-615" rx="124.28" ry="18"/>
<text text-anchor="middle" x="1235.22" y="-611.3" font-family="Times,serif" font-size="14.00">[R]: place_1(&#39;r1&#39;, &#39;box_1&#39;)</text>
</g>
<!-- H271R475_1&#45;&gt;H542R540 -->
<g id="edge15" class="edge">
<title>H271R475_1:s&#45;&gt;H542R540:n</title>
<path fill="none" stroke="black" d="M1235.22,-726.81C1235.22,-689.27 1235.22,-677.35 1235.22,-644.41"/>
<polygon fill="black" stroke="black" points="1238.72,-644 1235.22,-634 1231.72,-644 1238.72,-644"/>
</g>
<!-- H397R398 -->
<g id="node18" class="node">
<title>H397R398</title>
<path fill="#dae8fc" stroke="#6c8ebf" d="M1096.22,-936.62C1096.22,-936.62 848.22,-936.62 848.22,-936.62 842.22,-936.62 836.22,-930.62 836.22,-924.62 836.22,-924.62 836.22,-912.62 836.22,-912.62 836.22,-906.62 842.22,-900.62 848.22,-900.62 848.22,-900.62 1096.22,-900.62 1096.22,-900.62 1102.22,-900.62 1108.22,-906.62 1108.22,-912.62 1108.22,-912.62 1108.22,-924.62 1108.22,-924.62 1108.22,-930.62 1102.22,-936.62 1096.22,-936.62"/>
<text text-anchor="middle" x="972.22" y="-914.92" font-family="Times,serif" font-size="14.00">[H]: move_to_table(&#39;table_1&#39;, &#39;table&#39;)</text>
</g>
<!-- H542R540_1 -->
<g id="node20" class="node">
<title>H542R540_1</title>
<polygon fill="none" stroke="black" points="1330.72,-546 1133.72,-546 1133.72,-507 1330.72,-507 1330.72,-546"/>
<text text-anchor="middle" x="1232.22" y="-530.8" font-family="Times,serif" font-size="14.00">Total number of worlds:1</text>
</g>
<!-- H542R540&#45;&gt;H542R540_1 -->
<g id="edge14" class="edge">
<title>H542R540&#45;&gt;H542R540_1</title>
<path fill="none" stroke="black" d="M1234.62,-596.91C1234.22,-585.33 1233.68,-569.75 1233.21,-556.28"/>
<polygon fill="black" stroke="black" points="1236.7,-555.92 1232.86,-546.05 1229.71,-556.17 1236.7,-555.92"/>
<text text-anchor="start" x="1233.22" y="-568.8" font-family="Times,serif" font-weight="bold" font-size="14.00" fill="blue">Post SA and INF</text>
</g>
<!-- H714R715 -->
<g id="node21" class="node">
<title>H714R715</title>
<ellipse fill="#dae8fc" stroke="#6c8ebf" cx="1232.22" cy="-394" rx="141.07" ry="18"/>
<text text-anchor="middle" x="1232.22" y="-390.3" font-family="Times,serif" font-size="14.00">[R]: PASSIVE[&#39;WAIT_TURN&#39;]</text>
</g>
<!-- H542R540_1&#45;&gt;H714R715 -->
<g id="edge17" class="edge">
<title>H542R540_1:s&#45;&gt;H714R715:n</title>
<path fill="none" stroke="black" d="M1232.22,-505.5C1232.22,-468.08 1232.22,-456.21 1232.22,-423.38"/>
<polygon fill="black" stroke="black" points="1235.72,-423 1232.22,-413 1228.72,-423 1235.72,-423"/>
</g>
<!-- H714R715_1 -->
<g id="node22" class="node">
<title>H714R715_1</title>
<polygon fill="none" stroke="black" points="1330.72,-325 1133.72,-325 1133.72,-286 1330.72,-286 1330.72,-325"/>
<text text-anchor="middle" x="1232.22" y="-309.8" font-family="Times,serif" font-size="14.00">Total number of worlds:1</text>
</g>
<!-- H714R715&#45;&gt;H714R715_1 -->
<g id="edge16" class="edge">
<title>H714R715&#45;&gt;H714R715_1</title>
<path fill="none" stroke="black" d="M1232.22,-375.91C1232.22,-364.33 1232.22,-348.75 1232.22,-335.28"/>
<polygon fill="black" stroke="black" points="1235.72,-335.05 1232.22,-325.05 1228.72,-335.05 1235.72,-335.05"/>
<text text-anchor="start" x="1232.22" y="-347.8" font-family="Times,serif" font-weight="bold" font-size="14.00" fill="blue">Post SA and INF</text>
</g>
<!-- H930R929 -->
<g id="node23" class="node">
<title>H930R929</title>
<ellipse fill="#dae8fc" stroke="#6c8ebf" cx="1232.22" cy="-173" rx="142.17" ry="18"/>
<text text-anchor="middle" x="1232.22" y="-169.3" font-family="Times,serif" font-size="14.00">[R]: PASSIVE[&#39;IDLE&#39;, &#39;PASS&#39;]</text>
</g>
<!-- H714R715_1&#45;&gt;H930R929 -->
<g id="edge19" class="edge">
<title>H714R715_1:s&#45;&gt;H930R929:n</title>
<path fill="none" stroke="black" d="M1232.22,-284.5C1232.22,-276.44 1232.22,-269.56 1232.22,-263.4"/>
<polygon fill="black" stroke="black" points="1235.72,-263 1232.22,-253 1228.72,-263 1235.72,-263"/>
</g>
<!-- H930R929_1 -->
<g id="node24" class="node">
<title>H930R929_1</title>
<polygon fill="none" stroke="black" points="1330.72,-104 1133.72,-104 1133.72,-65 1330.72,-65 1330.72,-104"/>
<text text-anchor="middle" x="1232.22" y="-88.8" font-family="Times,serif" font-size="14.00">Total number of worlds:1</text>
</g>
<!-- H930R929&#45;&gt;H930R929_1 -->
<g id="edge18" class="edge">
<title>H930R929&#45;&gt;H930R929_1</title>
<path fill="none" stroke="black" d="M1232.22,-154.91C1232.22,-143.33 1232.22,-127.75 1232.22,-114.28"/>
<polygon fill="black" stroke="black" points="1235.72,-114.05 1232.22,-104.05 1228.72,-114.05 1235.72,-114.05"/>
<text text-anchor="start" x="1232.22" y="-126.8" font-family="Times,serif" font-weight="bold" font-size="14.00" fill="blue">Post SA and INF</text>
</g>
<!-- f_H1191R1192 -->
<g id="node25" class="node">
<title>f_H1191R1192</title>
<ellipse fill="black" stroke="black" cx="1232.22" cy="-11" rx="7" ry="7"/>
<ellipse fill="none" stroke="black" cx="1232.22" cy="-11" rx="11" ry="11"/>
<text text-anchor="middle" x="1202.22" y="-25.8" font-family="Times,serif" font-size="14.00">(309)</text>
</g>
<!-- H930R929_1&#45;&gt;f_H1191R1192 -->
<g id="edge20" class="edge">
<title>H930R929_1:s&#45;&gt;f_H1191R1192:n</title>
<path fill="none" stroke="black" d="M1232.22,-63.5C1232.22,-48.95 1232.22,-43.01 1232.22,-32.09"/>
<polygon fill="black" stroke="black" points="1235.72,-32 1232.22,-22 1228.72,-32 1235.72,-32"/>
</g>
</g>
</svg>
